<svg width="900" height="769" viewBox="0 0 900 769" fill="none" xmlns="http://www.w3.org/2000/svg">
<path d="M899.536 227.078C897.988 214.744 893.626 202.139 887.153 191.093C881.665 181.877 877.162 176.252 868.298 167.781C852.679 152.736 832.205 141.283 811.661 136.065C800.264 133.151 795.128 132.541 781.409 132.609C770.714 132.609 767.126 132.88 761.216 134.099C750.593 136.336 742.009 139.25 732.863 143.79C721.466 149.483 712.741 155.65 702.892 165.07C686.428 180.792 675.383 198.073 667.714 219.962L664.618 228.772L662.367 228.637C661.1 228.569 658.427 228.366 656.457 228.095L652.869 227.688L652.799 221.115C652.658 204.85 644.145 187.23 632.184 178.556C623.249 172.05 614.384 169.204 603.057 169.271C596.655 169.271 594.544 169.542 591.097 170.83C579.98 174.964 571.538 184.587 568.583 196.65C564.643 212.779 571.89 229.857 584.624 234.465C597.851 239.209 609.389 231.686 614.244 215.286C615.651 210.746 615.44 209.933 613.61 212.643C608.615 220.03 596.725 221.114 591.73 214.744L590.463 213.118L589.056 215.828C587.438 218.878 583.709 221.657 581.177 221.657C575.689 221.657 572.945 217.252 572.945 208.781C573.086 194.007 582.302 182.012 597.077 177.539C603.339 175.574 613.259 175.642 619.661 177.539C636.898 182.757 649.844 202.071 648.999 221.318C648.929 224.435 648.577 227.146 648.366 227.417C648.085 227.62 645.904 228.095 643.441 228.434C629.581 230.399 619.52 235.007 609.319 244.156C600.595 252.085 592.011 264.893 586.875 277.634L584.976 282.513L579.488 282.92C573.93 283.394 569.146 283.123 560.14 281.903C552.331 280.819 552.823 281.225 553.949 276.346C555.215 270.721 555.145 257.574 553.879 251.61C550.924 237.853 542.903 226.604 530.591 219.014C527.495 217.116 524.681 215.557 524.259 215.557C523.907 215.557 525.807 216.845 528.48 218.404C531.224 219.962 536.149 223.825 539.456 227.01C544.381 231.754 546.069 233.923 548.391 238.599C552.401 246.596 553.527 251.204 553.949 260.962C554.301 268.891 553.456 277.701 552.19 279.734C551.838 280.277 548.883 279.87 541.496 278.244C523.133 274.177 517.012 272.483 503.293 267.807C482.96 260.827 472.899 257.777 462.487 255.541C454.114 253.711 452.144 253.033 444.335 248.9C426.535 239.547 414.363 230.67 401.348 217.726C396.915 213.253 392.553 208.713 391.779 207.628L390.302 205.663L408.805 204.85C430.123 203.901 437.37 202.884 448.697 199.293C463.12 194.684 473.673 188.585 484.297 178.759C490.136 173.337 497.102 164.527 499.283 159.919C500.057 158.225 500.338 158.157 502.73 158.767C506.74 159.851 513.917 159.106 517.927 157.073C530.591 150.906 534.953 136.336 528.128 122.985C524.54 115.937 515.394 109.431 507.374 108.144C504.63 107.737 504.419 107.534 503.574 104.552C502.027 99.3338 494.006 84.0858 490.277 79.342C486.759 75.0047 478.668 67.1436 473.955 63.5518L471.492 61.722L475.362 62.1287C498.368 64.6361 522.641 79.0709 534.953 97.504C543.888 110.99 547.687 128.271 544.732 142.435C540.722 161.275 528.269 172.118 508.007 174.151C503.574 174.625 503.152 174.76 505.826 174.828C510.68 174.964 519.404 173.066 524.259 170.83C534.742 165.951 541.496 157.683 545.154 145.281C547.406 137.488 547.265 125.493 544.732 116.344C536.641 86.4577 506.811 63.2807 472.196 59.96C469.382 59.689 465.934 58.8757 464.105 57.9947C460.024 56.0294 450.456 53.2509 443.913 52.1666C436.737 51.0145 421.61 51.6922 414.856 53.5897C402.966 56.8426 390.724 64.2972 384.392 72.2261C381.789 75.479 377.497 82.7981 377.567 83.8824C377.638 84.1534 378.623 82.5948 379.819 80.3584C386.925 67.0757 399.659 57.9947 416.896 53.8608C423.58 52.2344 436.807 51.8955 444.476 53.1831C451.652 54.3352 458.758 56.3683 462.698 58.4014L465.16 59.6212L460.868 59.689C454.607 59.689 445.742 60.9088 437.721 62.8741C410.001 69.5154 388.402 86.9997 375.105 113.565C368.069 127.661 365.959 136.064 366.029 150.16C366.1 160.529 366.803 165.069 369.758 174.218C370.532 176.59 371.095 178.691 370.954 178.759C370.813 178.894 369.617 178.42 368.351 177.674C360.612 173.405 345.345 171.643 334.51 173.744C313.685 177.945 298.84 189.805 289.201 209.932C287.442 213.592 285.824 216.98 285.542 217.522C285.261 217.997 282.236 219.556 278.859 220.979L272.738 223.554L273.301 221.724C274.285 218.2 273.652 209.255 272.104 205.121C264.084 183.435 232.916 165.002 209.699 168.051C200.834 169.271 193.306 173.54 190.351 179.03C188.803 182.079 188.663 186.688 190.07 189.127C190.633 190.076 191.055 191.025 191.125 191.228C191.125 191.499 188.522 192.041 185.356 192.516C168.822 194.82 152.781 202.207 140.962 212.846C135.474 217.726 136.248 217.793 128.298 212.101C103.673 194.278 87.421 172.32 82.0037 149.415C80.7373 144.061 80.4558 140.672 80.4558 132.879C80.4558 124.137 80.7373 122.171 82.6369 115.191C93.6827 74.3945 123.936 48.7101 166.501 44.0341C194.221 40.9845 223.841 52.5053 240.726 72.7682C246.073 79.2062 251.631 89.5071 253.882 97.3005C256.204 105.229 256.204 118.919 253.882 126.102C251.772 132.473 249.52 136.268 245.018 140.876C238.334 147.72 229.258 151.583 217.931 152.464C211.739 153.006 211.599 153.006 215.75 153.074C229.258 153.345 242.837 146.772 249.872 136.539C259.44 122.646 259.018 100.418 248.746 82.188C237.63 62.1962 215.89 47.7614 189.999 43.0176C180.009 41.2556 162.35 41.9333 151.726 44.644C129.845 50.0655 114.156 59.3498 101.14 74.3267C90.0946 87.135 81.7222 104.552 78.5562 121.358C77.3602 127.593 77.5009 140.943 78.8377 147.653C81.9333 163.172 89.6724 178.081 101.914 192.177C108.879 200.173 121.544 211.22 130.127 216.845C131.956 217.997 133.434 219.284 133.434 219.623C133.434 220.03 132.308 221.656 130.971 223.35C123.373 232.974 116.408 251.136 116.619 260.623C116.689 262.724 116.9 262.317 117.322 258.929C118.166 252.694 121.121 243.274 124.217 236.904C126.82 231.55 132.66 222.469 134.348 221.114C134.981 220.64 136.881 221.385 141.243 223.893C148.841 228.298 156.932 232.025 176.702 240.293C209.558 254.118 227.992 265.638 240.304 280.209C246.565 287.528 252.123 296.202 255.993 304.47C260.707 314.703 260.777 315.245 257.611 316.736C256.274 317.346 254.938 317.888 254.727 317.888C254.516 317.888 253.671 316.465 252.897 314.703C248.254 304.538 239.319 291.797 231.65 284.41C228.273 281.157 220.534 275.058 215.82 272.009C215.679 271.941 216.875 270.111 218.564 268.01C220.182 265.977 221.378 264.08 221.167 263.944C220.956 263.741 219.619 265.232 218.071 267.332C216.594 269.366 215.187 271.06 214.835 271.128C214.554 271.128 213.146 270.382 211.669 269.501C202.593 264.012 187.185 258.455 175.717 256.625C163.686 254.66 147.083 255.676 135.896 258.929C130.197 260.623 121.614 264.622 116.759 267.807C111.272 271.466 102.618 279.87 99.0297 285.088C95.5119 290.103 92.9088 295.999 90.7981 303.656C89.8131 306.977 89.5317 310.569 89.6021 318.227C89.6021 326.969 89.8835 329.341 91.5017 335.169C94.0345 344.386 99.1001 354.076 105.925 362.683C112.186 370.612 122.951 380.981 128.931 384.776L132.8 387.215L128.438 391.349C111.905 407.072 106.417 427.47 111.342 454.849L111.764 457.288L103.744 462.778C85.8732 474.976 70.8171 487.784 52.6654 506.285C38.6646 520.584 31.7698 528.785 23.6789 540.847C8.76349 563.143 1.02438 583.745 0.180109 603.398C-0.101313 609.972 -0.101313 610.514 0.531887 607.261C4.54216 586.591 6.65282 579.543 11.437 571.75C15.2362 565.515 21.6386 558.738 28.3927 553.927C42.112 544.168 63.5001 537.391 81.0187 537.188C88.406 537.12 88.9689 537.256 93.6827 539.356C96.4266 540.576 100.015 542.88 101.703 544.439C103.744 546.337 104.588 546.811 104.306 545.93C102.336 540.78 102.196 527.294 104.025 527.294C104.377 527.294 107.121 527.904 110.076 528.581C124.569 532.105 135.544 532.715 157.003 530.953C169.526 529.937 182.964 530.072 185.989 531.157C186.622 531.428 182.612 532.444 176.702 533.461C170.933 534.545 164.601 535.833 162.702 536.51C150.178 540.441 136.389 553.452 132.026 565.515C128.72 574.393 128.649 582.593 131.745 591.539C135.755 603.195 146.731 620.679 155.244 629.015C166.219 639.654 180.783 646.974 195.558 649.278C202.101 650.294 213.569 649.82 219.619 648.261C224.614 647.041 235.52 642.094 240.093 639.045C244.877 635.927 252.616 628.676 256.274 623.932C262.958 615.461 269.642 600.145 271.823 588.692C273.301 580.763 273.301 563.55 271.823 556.434C271.26 553.656 270.838 551.352 270.838 551.284C270.908 551.284 272.949 549.793 275.411 547.963C277.803 546.201 279.914 544.846 280.125 545.049C280.829 545.727 283.995 559.145 285.472 567.616L286.949 576.426L283.361 580.086C279.773 583.745 275.341 591.471 274.497 595.605C274.004 597.977 275.13 598.722 275.904 596.486C277.029 592.894 282.587 588.963 286.387 588.963C288.568 588.963 288.638 589.167 289.623 600.823C291.663 623.458 296.518 641.417 305.594 660.121C309.182 667.508 314.951 676.792 318.539 681.197C319.665 682.552 320.579 683.84 320.579 684.043C320.579 684.247 318.258 683.772 315.444 683.027C303.905 679.977 290.397 671.98 282.165 663.306C279.984 661.002 279.14 660.324 280.336 661.815C283.221 665.475 290.608 672.251 294.759 674.962C300.528 678.757 309.041 682.484 315.514 684.043L321.705 685.602L327.263 691.227C340.349 704.442 356.109 712.981 373.276 716.166C381.578 717.657 397.408 717.657 407.469 716.098C419.922 714.133 432.726 709.66 442.365 703.832L444.968 702.205L445.812 707.762C448.627 726.06 455.17 738.936 467.623 750.931C475.784 758.792 481.764 762.52 490.981 765.434C513.987 772.821 543.466 765.773 560 748.966C570.694 737.987 575.689 726.467 576.322 711.286L576.603 703.832L575.97 710.948C573.648 737.445 558.733 755.675 532.209 764.146C494.147 776.277 458.969 756.082 448.275 715.827C447.712 713.523 447.008 709.253 446.797 706.339L446.446 701.121L450.737 698.071C453.129 696.377 457.984 692.108 461.572 688.516C485.985 663.916 494.147 630.574 483.453 599.536L481.131 592.759L482.96 591.403C484.015 590.658 486.9 588.15 489.363 585.914C505.193 571.479 513.143 551.081 511.384 529.327L510.891 523.567L520.389 518.755C525.596 516.18 532.983 512.114 536.853 509.81C540.652 507.506 543.958 505.608 544.31 505.608C545.647 505.608 562.954 513.266 565.698 515.028C572.664 519.636 576.181 525.871 576.041 533.325C575.97 538.273 575.267 540.102 572.101 543.491C565.839 550.132 553.527 549.726 547.617 542.745C545.436 540.102 544.873 536.24 546.421 534.342C546.913 533.8 547.124 533.19 546.913 532.987C546.702 532.783 545.858 533.8 545.084 535.359C543.325 538.611 543.114 544.982 544.662 548.506C550.853 562.737 571.608 556.435 581.106 537.459C585.539 528.582 586.594 523.906 587.016 512.724C587.509 499.509 585.82 490.496 581.106 481.753L578.644 477.145L583.146 472.266C609.6 443.6 628.878 405.988 640.275 361.125C641.612 355.771 642.949 350.146 643.23 348.588C643.512 346.961 644.074 345.674 644.497 345.674C644.919 345.674 648.225 346.284 651.814 347.029C671.232 350.824 688.398 365.056 696.982 384.302C701.555 394.467 702.258 397.788 702.258 408.699C702.258 418.051 702.118 418.796 699.937 424.963C694.449 440.076 685.232 450.783 672.006 457.357C669.684 458.509 668.066 459.458 668.347 459.525C668.628 459.525 670.669 458.644 672.92 457.56C687.273 450.512 698.881 435.332 702.329 419.067C703.877 412.087 703.314 399.482 701.273 392.773C697.756 381.388 690.861 370.477 682.066 362.209C672.357 353.06 663 348.181 650.829 345.945C647.381 345.267 644.497 344.725 644.356 344.589C644.215 344.522 644.919 340.523 645.904 335.712C647.592 327.579 652.658 301.082 652.658 300.269C652.658 300.065 655.613 299.997 659.201 300.133C680.8 301.014 697.052 286.444 696.982 266.181C696.911 252.153 689.383 240.022 676.79 233.652L671.724 231.077L673.413 226.875C677.986 215.219 685.373 200.581 690.087 193.939C693.394 189.331 700.922 181.944 705.917 178.556C723.084 166.696 744.19 165.747 760.443 176.048C770.574 182.486 775.428 190.619 776.273 202.681C776.765 209.729 775.78 213.457 772.614 216.777C770.081 219.488 767.971 219.827 760.513 218.675L756.854 218.133L753.126 221.453C747.849 226.197 746.301 227.078 743.065 227.078C736.733 227.01 730.753 221.25 730.19 214.541C729.768 209.526 731.386 205.596 735.326 202.072C738.703 199.09 741.587 198.276 746.794 198.751C750.03 199.09 750.03 199.09 747.99 198.209C744.542 196.718 737.858 197.057 734.27 198.819C730.541 200.581 726.953 205.799 726.179 210.475C725.617 214.338 727.164 219.759 729.908 223.419C735.677 231.077 747.779 236.159 756.503 234.601C769.307 232.296 780.072 219.014 780.001 205.528C780.001 200.919 777.961 193.6 775.288 188.45C771.911 182.012 763.96 174.083 757.699 170.966C748.271 166.222 734.341 164.595 724.42 167.103C715.274 169.407 703.243 176.252 695.856 183.367C689.665 189.263 685.936 195.159 676.86 213.728C672.428 222.673 668.699 230.196 668.488 230.331C668.347 230.467 667.784 230.331 667.151 229.992C666.236 229.518 666.518 228.23 669.121 220.572C682.77 181.402 712.038 151.042 747.849 139.047C771.137 131.253 799.701 131.999 823.411 141.08C861.755 155.718 889.967 185.604 897.073 219.082C898.691 226.74 899.465 239.819 898.832 248.426C895.596 291.459 865.413 324.869 827.491 327.376L819.049 327.918L827.491 327.715C840.155 327.376 849.724 324.259 861.403 316.804C879.836 305.013 894.118 282.852 898.551 259.269C899.958 252.017 900.45 234.194 899.536 227.078ZM689.594 269.298C689.032 271.467 687.906 274.449 687.062 275.94C681.996 285.563 669.895 290.713 659.482 287.799C655.191 286.579 655.12 286.444 655.894 281.903C656.316 279.396 656.316 279.396 660.397 279.125C672.287 278.311 676.579 263.673 667.292 255.812C665.885 254.592 664.337 253.508 663.844 253.372C662.789 253.034 669.332 236.566 670.528 236.566C674.398 236.634 684.81 244.427 687.413 249.306C690.509 255.067 691.353 262.792 689.594 269.298ZM667.784 272.958C666.236 275.194 663.704 276.617 660.538 277.024C657.372 277.43 656.949 277.024 657.372 274.042C657.653 272.212 658.075 271.806 659.412 271.806C663.915 271.806 665.392 266.249 661.804 262.996C659.904 261.301 659.764 260.895 660.467 258.997C660.889 257.845 661.593 256.896 662.085 256.896C663.422 256.896 667.432 260.759 668.558 263.131C669.754 265.774 669.332 270.586 667.784 272.958ZM664.9 237.65C663.915 238.802 663.844 238.802 664.196 237.718C664.407 237.04 664.618 236.159 664.618 235.82C664.618 235.482 664.97 235.21 665.322 235.21C666.307 235.21 666.166 236.091 664.9 237.65ZM662.085 240.971C661.804 242.462 660.467 245.579 659.13 247.815C656.949 251.543 656.387 252.017 654.065 252.356C652.587 252.559 648.929 253.847 645.833 255.338L640.275 257.913L643.371 253.101C645.059 250.391 647.522 245.647 648.788 242.597C651.04 237.04 651.18 236.905 654.135 236.091C655.824 235.685 658.638 235.278 660.327 235.278C663.141 235.21 663.352 235.346 663 236.769C662.789 237.582 662.367 239.48 662.085 240.971ZM655.402 274.855C654.98 276.007 654.839 276.007 654.487 275.126C654.065 274.178 655.753 269.095 656.527 269.095C656.879 269.095 656.176 272.958 655.402 274.855ZM653.713 285.292C653.502 285.427 652.587 285.021 651.602 284.411L649.844 283.259L651.321 280.412C653.15 276.888 653.08 276.956 654.065 277.566C654.698 277.905 654.768 279.192 654.417 281.564C654.206 283.462 653.854 285.088 653.713 285.292ZM645.622 266.384L642.808 269.434L643.23 267.062C644.356 260.895 647.733 256.354 651.532 255.744L654.346 255.338L651.391 259.336C649.703 261.505 647.17 264.69 645.622 266.384ZM648.085 316.533C646.396 325.682 644.426 335.779 643.723 338.965L642.597 344.86L635.139 345.199C621.35 345.809 608.263 350.688 594.474 360.312C592.644 361.532 592.996 362.412 590.815 351.095C590.041 347.164 588.212 338.829 586.805 332.459C584.483 322.226 584.131 319.854 584.131 310.976C584.061 305.554 584.272 300.878 584.483 300.607C584.765 300.404 586.805 301.014 589.056 301.963C597.921 305.826 606.082 304.606 615.158 298.1C621.279 293.763 622.053 293.492 630.636 292.746L637.813 292.136L642.175 294.847C644.567 296.338 647.592 297.897 648.859 298.371C650.195 298.845 651.251 299.388 651.251 299.591C651.251 299.794 649.844 307.452 648.085 316.533ZM641.26 248.086C631.833 264.215 616.847 274.991 596.444 280.209C591.659 281.429 590.041 281.632 590.041 281.022C590.041 280.073 596.514 269.976 600.313 264.961C604.112 259.946 611.289 253.982 616.565 251.407C620.787 249.374 621.912 249.103 626.908 249.103C630.074 249.103 633.451 249.306 634.506 249.577C636.124 250.052 636.406 249.848 637.039 248.154C637.813 245.986 642.315 240.971 644.356 239.886C645.622 239.209 645.622 239.277 644.567 241.784C643.934 243.207 642.456 246.053 641.26 248.086ZM638.516 361.938C628.948 399.55 612.907 433.366 592.222 459.729C587.297 466.031 579.066 475.248 578.01 475.654C577.729 475.79 576.392 474.705 575.056 473.282C571.608 469.691 565.839 466.505 560.211 465.15C548.32 462.371 535.023 467.793 530.309 477.484C528.902 480.33 528.691 481.618 528.973 485.616C529.465 492.393 532.139 496.595 539.526 502.287L542.903 504.795L537.134 508.387C530.38 512.52 512.65 521.872 511.525 521.872C511.032 521.872 510.117 519.501 509.484 516.654C507.866 509.539 503.996 499.17 500.69 492.596L497.876 487.243L500.549 486.158C501.956 485.616 507.866 482.838 513.635 480.059C519.404 477.348 524.118 475.18 524.259 475.248C524.329 475.383 524.822 476.603 525.455 478.026L526.44 480.669L527.355 477.891C528.551 474.028 532.42 470.639 544.169 463.185C576.041 443.125 589.901 422.252 593.629 388.707C594.403 381.727 594.122 369.596 593.137 364.717C592.715 362.887 593.067 362.48 596.866 359.77C608.545 351.434 625.641 345.674 638.376 345.674L642.245 345.674L641.753 348.588C641.471 350.146 639.994 356.178 638.516 361.938ZM630.848 276.414L630.848 280.277L626.415 282.784C616.917 288.206 606.997 290.984 593.77 291.865C585.75 292.34 585.961 292.475 587.227 288.002C587.931 285.698 588.212 285.495 591.308 285.02C596.303 284.343 610.163 279.735 616.073 276.888C621.209 274.381 626.767 270.925 631.34 267.333L633.591 265.571L632.184 269.027C631.481 270.992 630.848 274.245 630.848 276.414ZM582.724 289.087C581.95 290.916 581.247 291.459 579.98 291.459C575.337 291.459 552.753 286.918 551.487 285.766C551.275 285.495 551.416 285.02 551.838 284.614C552.331 284.139 554.441 284.275 558.803 285.088C562.603 285.766 568.724 286.308 574.352 286.308C579.488 286.376 583.709 286.444 583.709 286.579C583.709 286.647 583.217 287.799 582.724 289.087ZM575.407 300.472C571.538 305.554 569.92 308.401 568.935 311.45L568.09 314.161L562.603 309.011C559.577 306.164 554.793 302.369 551.909 300.607C549.094 298.777 546.491 297.151 546.21 296.88C545.717 296.473 550.29 287.392 550.924 287.392C551.205 287.392 575.337 295.321 576.885 295.863C577.518 296.135 578.081 296.473 578.081 296.609C578.081 296.812 576.885 298.506 575.407 300.472ZM556.622 382.743C555.637 385.115 554.441 389.52 554.09 392.637C553.105 399.821 551.979 401.989 546.351 407.411C541.426 412.223 535.023 415.747 529.676 416.56L526.721 417.034L528.058 413.917C533.546 401.583 537.134 379.558 536.36 363.497L535.868 355.161L538.26 355.161C541.637 355.161 545.366 356.855 548.954 360.041C553.034 363.632 554.723 365.936 556.693 370.68C558.803 375.56 558.803 377.457 556.622 382.743ZM550.713 434.315C546.913 446.31 537.767 458.644 526.299 467.115C518.912 472.537 507.374 478.839 499.353 481.821L495.835 483.109L491.544 476.738C489.222 473.214 487.322 470.097 487.322 469.758C487.322 469.419 490.066 467.522 493.513 465.557C506.811 457.899 516.027 450.919 527.143 440.008L535.023 432.35L539.456 431.672C541.918 431.266 545.788 430.249 548.039 429.436C552.753 427.538 552.823 427.674 550.713 434.315ZM549.939 285.359C549.024 285.359 530.732 279.192 529.536 278.515C528.058 277.566 528.691 277.701 540.933 280.954C548.18 282.852 551.064 283.868 550.853 284.478C550.642 284.953 550.22 285.359 549.939 285.359ZM534.32 290.849C522.5 285.088 512.228 281.564 500.338 279.26C493.513 277.905 492.247 277.43 488.729 274.855C483.804 271.196 472.829 264.283 467.06 261.166C464.597 259.878 462.768 258.658 462.909 258.523C464.034 257.438 510.54 272.009 529.536 279.463C534.742 281.496 541.496 284.004 544.451 285.02L549.868 286.85L547.476 291.458L545.084 296.067L534.32 290.849ZM545.295 341.54C544.521 344.115 543.185 346.148 540.511 348.791C536.571 352.721 535.164 353.331 535.164 351.027C535.164 345.741 529.887 327.173 526.018 318.905L523.977 314.568L527.777 312.535C529.817 311.382 532.631 309.553 533.968 308.401C535.305 307.316 536.712 306.368 537.134 306.368C538.049 306.368 541.848 313.009 543.325 317.211C546.351 325.614 547.124 335.576 545.295 341.54ZM532.913 308.197C527.355 312.196 523.696 314.229 523.415 313.348C522.852 311.721 515.957 301.014 513.002 297.287C511.313 295.05 508.147 291.526 506.037 289.29C501.956 285.156 502.027 284.885 506.67 286.105C516.872 288.748 525.736 293.627 532.49 300.472C534.742 302.64 536.571 304.741 536.571 305.012C536.571 305.283 534.883 306.706 532.913 308.197ZM532.983 383.489C531.998 392.57 529.887 401.922 527.143 409.851C524.892 416.356 524.822 416.492 522.5 416.695C521.234 416.831 519.967 416.695 519.615 416.356C519.264 416.018 519.686 413.713 520.671 410.935C522.148 406.801 524.329 398.872 525.736 392.434C526.088 390.943 526.229 390.875 526.792 391.96C527.214 392.637 527.284 393.722 527.073 394.467C526.37 396.568 527.214 396.094 529.184 393.315C531.505 389.927 531.576 385.657 529.184 381.184C527.706 378.338 527.495 377.322 527.847 373.459C528.48 367.36 526.932 353.467 524.892 345.741C522.852 338.219 520.671 332.662 516.449 324.462C513.776 319.244 513.565 318.43 514.62 318.159C515.253 317.956 517.012 317.346 518.56 316.804C520.038 316.262 521.374 315.855 521.445 315.991C521.515 316.126 522.57 318.363 523.766 320.938C527.636 329.545 530.591 340.116 532.631 352.315C532.772 353.467 532.42 354.077 531.365 354.483L529.887 355.093L531.435 355.093C532.702 355.161 533.053 355.636 533.264 357.736C533.827 363.226 533.687 377.254 532.983 383.489ZM522.289 443.667C515.605 449.699 508.077 455.459 500.69 460.135C492.177 465.624 492.106 465.624 497.242 460.474C499.775 457.899 503.574 453.833 505.615 451.393C509.906 446.378 518.63 433.841 519.334 431.74C519.897 430.046 519.334 429.978 531.505 432.147C533.124 432.485 533.053 432.553 530.239 435.806C528.621 437.636 525.033 441.16 522.289 443.667ZM524.681 144.061C520.952 151.922 512.017 156.463 504.137 154.362L502.238 153.888L503.856 149.008C505.193 144.874 505.755 144.061 507.092 143.858C510.962 143.451 512.087 142.909 513.354 140.808C514.128 139.656 514.761 137.623 514.761 136.336C514.761 133.354 512.228 129.084 509.344 127.39C507.233 126.102 507.022 125.696 507.022 122.714C507.022 120.952 506.811 118.512 506.529 117.293C506.107 115.124 506.177 115.056 508.147 115.531C515.183 117.157 522.711 123.256 524.822 129.017C526.37 133.083 526.299 140.741 524.681 144.061ZM514.69 317.211C513.002 317.685 512.58 317.346 509.062 312.263C504.559 305.758 493.865 295.253 486.408 290.103C483.453 288.07 481.061 286.172 481.061 285.969C480.99 285.427 487.393 284.682 492.669 284.682L496.961 284.682L502.871 290.645C509.344 297.083 513.776 302.708 518.138 310.095L520.952 314.839L518.771 315.787C517.505 316.262 515.675 316.94 514.69 317.211ZM514.62 436.009C512.58 439.195 508.992 444.345 506.67 447.462C501.886 453.833 486.97 468.877 486.197 468.132C485.845 467.861 487.252 466.031 489.222 464.066C497.031 456.272 503.152 447.869 509.484 436.145C511.525 432.418 513.283 428.961 513.424 428.487C513.635 427.809 514.198 427.809 516.027 428.419C517.223 428.826 518.279 429.368 518.279 429.639C518.279 429.91 516.59 432.756 514.62 436.009ZM514.128 358.211C512.017 368.105 508.992 374.204 503.856 379.084C501.464 381.388 498.649 384.844 497.664 386.674C496.68 388.571 495.132 390.74 494.217 391.553C490.699 394.738 484.297 396.026 477.895 394.806L475.714 394.399L478.176 396.297C483.664 400.498 487.322 404.226 488.659 406.869C494.569 418.796 486.056 436.077 470.718 443.057C464.457 445.971 466.145 446.514 454.185 437.771C441.591 428.623 432.163 423.608 421.047 420.016C415.067 418.051 405.499 416.153 401.911 416.153C400.292 416.153 398.463 415.272 395.438 413.036C379.608 401.041 360.471 402.057 346.822 415.611C343.023 419.406 339.224 425.573 338.098 429.775L337.183 433.163L327.615 438.788C322.409 441.905 309.111 450.173 298.066 457.153C287.02 464.133 277.663 470.029 277.24 470.165C276.748 470.3 273.723 468.199 270.416 465.421L264.365 460.338L274.919 452.816C293.281 439.601 303.835 430.927 330.781 406.733C348.651 390.604 347.104 391.688 362.23 385.115C364.833 383.963 368.562 381.591 370.532 379.829C372.502 378.067 374.19 376.779 374.261 376.915C390.302 398.059 402.333 405.92 418.585 405.988C433.148 405.988 449.963 398.262 457.984 387.826C459.602 385.725 461.994 383.082 463.261 381.93C464.597 380.846 467.552 378.203 469.874 376.169C474.306 372.239 479.302 366.072 481.412 361.802C482.819 358.888 486.267 357.194 491.051 357.126L494.006 357.059L491.895 356.178C490.77 355.636 489.151 355.229 488.378 355.161C485.282 355.093 485.071 354.348 486.548 349.062C489.011 340.523 489.151 332.797 486.97 322.293L486.548 320.26L497.453 320.192L508.429 320.192C508.429 320.26 509.414 322.564 510.61 325.343C515.253 336.254 516.449 347.3 514.128 358.211ZM503.363 319.515C498.579 320.057 493.302 320.057 489.292 319.515L486.126 319.108L483.945 313.551C481.412 307.249 476.136 298.71 471.844 293.966C470.226 292.204 469.03 290.577 469.241 290.374C470.366 289.29 483.734 295.321 489.925 299.658C496.68 304.538 506.881 315.584 507.022 318.295C507.022 318.701 505.333 319.244 503.363 319.515ZM502.238 125.764C497.242 125.764 493.302 127.932 490.347 132.337C488.729 134.641 488.307 136.064 488.166 140.266C487.955 144.874 488.096 145.823 489.925 149.144C491.684 152.397 496.117 156.598 498.649 157.412C499.564 157.683 495.202 165.002 490.699 170.627C484.015 179.03 472.618 187.772 461.361 193.194C445.531 200.784 435.259 202.817 405.71 204.037C387.769 204.714 388.332 204.85 386.292 199.36C383.829 192.787 381.93 189.331 378.693 185.739C376.02 182.757 374.964 180.724 373.065 174.896C369.336 163.646 368.773 160.597 368.843 149.144C368.843 140.402 369.125 137.623 370.462 132.676C372.432 125.289 376.02 116.547 379.819 109.838C382.774 104.62 389.106 95.2675 390.02 94.7254C390.372 94.5221 390.583 96.4196 390.583 98.9271C390.583 104.62 392.764 108.211 397.408 110.448C402.544 112.82 406.484 112.21 409.79 108.618L411.479 106.788L410.986 109.16C410.283 112.887 407.398 118.106 404.654 120.681C402.333 122.849 401.77 123.053 397.9 123.053C395.649 123.053 393.749 123.256 393.749 123.527C393.749 124.679 401.488 126.373 406.765 126.373C411.409 126.373 413.167 126.035 416.756 124.476C423.228 121.63 427.661 116.818 429.701 110.516C433.008 100.011 428.997 89.8461 419.429 84.4246C415.56 82.1882 408.031 80.9683 404.936 81.9171L402.544 82.7303L405.358 80.2906C406.906 78.9353 410.705 76.4278 413.801 74.5981C427.731 66.5336 441.802 62.603 459.18 61.9253L469.382 61.5865L473.955 64.7716C485.985 73.3105 495.835 86.7288 501.675 102.248C503.856 108.076 503.856 108.076 502.378 107.534C500.408 106.788 491.544 108.483 487.463 110.312C481.905 112.82 474.799 119.8 472.055 125.425C468.959 131.795 468.115 136.132 468.467 143.316C468.889 151.448 471.492 156.869 477.895 163.24L482.468 167.78L478.88 163.172C474.306 157.141 472.829 154.362 471.774 149.347C469.944 140.808 473.181 131.456 480.427 124.476C486.408 118.716 492.74 115.802 500.127 115.395L505.544 115.056L505.826 118.377C505.966 120.207 506.107 122.646 506.177 123.731L506.318 125.764L502.238 125.764ZM501.675 542.068C497.524 554.063 487.604 566.803 476.065 575.003L471.844 577.985L466.427 572.564C460.165 566.397 451.722 560.704 444.616 557.858C439.34 555.757 431.038 553.724 427.731 553.724C426.183 553.724 425.198 552.978 423.158 550.132C421.68 548.235 419.851 545.795 419.077 544.778L417.6 542.949L427.731 542.949C440.114 542.881 451.23 541.593 465.512 538.408C475.573 536.104 496.398 529.734 500.83 527.565C504.419 525.735 504.7 526.074 504.067 531.767C503.785 534.613 502.66 539.221 501.675 542.068ZM503.434 147.179C503.012 148.466 502.378 150.296 501.956 151.312L501.253 153.21L499.283 151.855C495.202 149.076 493.725 142.164 496.539 138.707C498.79 135.997 500.971 136.336 502.027 139.656C502.449 141.079 503.152 142.503 503.504 142.706C504.419 143.248 504.419 144.332 503.434 147.179ZM499.072 527.158C491.473 530.208 478.106 534.41 468.537 536.714C453.622 540.373 444.968 541.593 430.686 542L417.318 542.339L410.283 535.629C402.966 528.649 393.397 521.398 385.025 516.586C382.281 515.028 380.522 513.74 381.015 513.74C381.578 513.74 385.166 513.334 389.106 512.791C392.975 512.249 399.518 511.572 403.599 511.368C421.047 510.284 449.26 503.981 476.91 494.968L486.478 491.851L489.363 494.019C497.242 500.051 503.996 512.588 504.137 521.601L504.208 525.058L499.072 527.158ZM486.267 347.368C484.719 354.145 484.227 354.822 481.623 355.026C480.287 355.093 476.839 356.313 473.955 357.669C469.593 359.702 467.341 361.464 460.587 368.037C456.155 372.442 451.37 376.644 450.034 377.457C446.938 379.219 442.084 379.355 438.777 377.66C435.752 376.034 435.4 375.085 437.651 374.543C440.465 373.865 444.476 370.07 446.235 366.343C449.682 359.295 447.712 350.553 441.521 345.402L438.706 343.098L440.676 341.811C443.491 339.913 448.275 338.219 450.737 338.219C454.185 338.219 453.129 337.135 448.838 336.254C442.646 335.102 433.219 335.305 428.294 336.796C422.454 338.558 418.233 341.268 407.539 350.282C396.212 359.769 392.131 361.26 383.477 359.159C379.889 358.278 379.96 358.685 381.437 348.384C383.337 335.508 385.799 329.612 391.498 324.53C393.468 322.768 396.141 321.073 397.689 320.667C401.488 319.65 407.82 319.718 414.856 320.938C429.631 323.445 437.088 321.141 445.32 311.518L448.908 307.249L455.592 310.23C466.497 315.11 470.366 316.533 478.176 318.43L485.493 320.26L486.126 322.971C487.955 331.035 487.955 339.845 486.267 347.368ZM484.93 642.162C481.061 659.376 472.618 674.623 459.672 687.635C453.974 693.395 447.501 698.749 446.164 698.749C445.953 698.749 445.883 695.022 446.094 690.481C447.29 666.627 447.993 629.354 447.36 622.238C446.727 614.648 446.727 614.58 448.697 611.056C449.752 609.159 451.019 606.312 451.441 604.822L452.285 602.043L457.351 601.636C463.12 601.162 468.678 599.468 475.08 596.147C479.091 594.114 479.653 593.979 480.216 594.995C481.483 597.299 484.367 607.126 485.141 611.666C485.563 614.309 486.056 617.155 486.197 618.104C486.83 621.493 485.985 637.554 484.93 642.162ZM477.683 276.075C473.11 275.668 466.075 275.058 461.994 274.855C457.914 274.584 452.215 273.771 449.33 273.025C442.435 271.263 423.439 270.586 415.7 271.805C407.891 272.957 399.941 275.533 392.905 279.057L386.854 282.174L381.156 281.022C377.99 280.412 374.824 279.938 374.05 279.938C371.798 279.938 372.361 278.989 377.075 275.194C387.558 266.587 399.87 260.352 412.393 257.303C419.57 255.541 428.716 254.999 440.606 255.676L451.793 256.219L459.532 260.42C467.623 264.757 485.915 275.939 485.915 276.549C485.915 276.753 482.186 276.549 477.683 276.075ZM477.895 317.549C472.196 316.194 454.466 309.282 450.808 307.113C449.963 306.571 450.245 305.893 452.285 303.521C454.748 300.607 462.487 294.237 466.356 291.933L468.256 290.781L472.196 295.592C474.306 298.303 477.261 302.437 478.668 304.877C481.061 308.943 485.352 318.701 484.93 319.108C484.789 319.176 481.623 318.498 477.895 317.549ZM477.754 366.207C474.658 370.748 465.019 380.642 464.316 379.964C463.261 378.948 476.487 362.887 479.724 361.193C481.553 360.244 481.342 360.854 477.754 366.207ZM470.648 491.648C454.396 496.73 417.952 507.031 416.122 506.896C415.63 506.896 418.514 505.743 422.595 504.32C430.897 501.474 444.405 495.51 451.793 491.512C465.793 483.99 465.934 483.922 469.733 484.6C472.829 485.142 480.287 487.853 480.287 488.327C480.287 488.462 475.925 489.953 470.648 491.648ZM461.572 583.271C458.054 584.897 454.255 586.388 453.129 586.659C451.23 586.998 451.019 586.795 449.752 583.949C448.064 579.815 442.928 574.393 438.355 571.954C436.174 570.734 434.556 569.311 434.274 568.43C434.063 567.616 432.304 564.296 430.334 560.975C428.435 557.722 426.816 554.944 426.816 554.876C426.816 554.74 428.505 554.876 430.616 555.147C442.928 556.706 454.677 562.805 465.09 572.902C471.633 579.205 471.844 578.527 461.572 583.271ZM455.31 446.92C451.23 447.53 444.687 446.852 438.073 445.226C432.656 443.803 429.842 442.447 425.128 438.991L422.454 436.958L424.073 439.94C425.55 442.583 425.761 443.87 425.761 450.444C425.761 457.763 425.691 458.034 423.088 463.185C415.56 477.823 402.403 492.325 388.965 500.864C382.985 504.591 373.557 508.454 370.039 508.59C368.843 508.657 367.999 508.861 368.14 509.132C368.703 510.013 360.33 510.555 351.254 510.148C342.39 509.742 333.243 508.115 323.745 505.269C319.735 504.049 320.298 505.066 324.449 506.624C327.193 507.641 327.123 507.641 320.017 507.37C305.312 506.692 287.723 508.657 273.793 512.588L268.165 514.147L265.21 510.487C263.521 508.454 262.184 506.353 262.184 505.811C262.184 505.337 263.169 502.49 264.295 499.576C266.406 494.426 271.19 487.988 272.949 487.988C273.371 487.988 274.708 488.869 275.904 489.953C278.718 492.596 282.728 494.561 287.231 495.51C290.327 496.188 292.789 496.12 300.739 495.171C310.308 494.019 310.659 494.019 318.891 495.442C351.043 500.864 376.02 495.171 392.553 478.704L395.93 475.315L402.403 476.874C405.991 477.755 409.65 478.433 410.635 478.433C412.042 478.365 412.112 478.297 410.986 478.094C406.343 477.145 396.845 474.909 396.634 474.705C396.493 474.57 397.337 473.282 398.533 471.859C401.418 468.403 405.499 460.609 407.187 455.323C408.946 449.97 409.72 438.178 408.594 433.095C408.172 431.062 407.046 427.809 406.061 425.844L404.373 422.32L406.624 422.659C424.143 425.437 434.837 429.029 445.32 435.535C450.667 438.856 458.476 445.023 458.476 445.971C458.476 446.242 457.069 446.717 455.31 446.92ZM445.179 688.516L444.757 700.24L439.129 703.222C422.595 711.964 405.428 715.624 385.658 714.81C364.903 713.929 348.088 706.814 332.54 692.243L325.856 685.941L330.218 686.347C335.776 686.822 346.752 685.534 354.209 683.433C373.628 678.012 390.302 663.916 399.096 645.483C401.629 640.265 405.006 628.879 405.006 625.762C405.006 624.407 405.288 624.136 406.273 624.542C408.946 625.694 416.122 626.914 420.133 626.914C427.942 626.914 436.737 623.729 442.435 618.85C445.179 616.478 445.742 616.207 446.094 617.223C446.516 618.646 445.883 670.964 445.179 688.516ZM442.295 589.235C441.661 588.489 438.777 579.273 439.058 578.934C439.621 578.459 442.998 583.407 443.983 585.982C444.757 588.286 444.757 588.693 443.913 589.235C443.35 589.506 442.646 589.506 442.295 589.235ZM434.063 252.288C425.48 252.085 422.384 252.288 416.263 253.508C401.77 256.354 384.04 265.3 372.783 275.465L369.125 278.786L355.898 278.921C345.274 278.989 341.405 279.26 335.636 280.48C322.972 283.123 310.378 287.867 300.106 293.898C297.784 295.253 295.744 296.202 295.533 295.999C295.322 295.795 293.281 291.323 290.96 286.037C284.98 272.212 283.924 268.01 283.502 255.812C283.08 243.613 284.065 237.853 288.286 227.417C292.719 216.438 292.367 216.777 302.006 214.337C309.252 212.508 324.379 209.458 326.208 209.458C326.489 209.458 326.138 210.746 325.293 212.372C323.183 216.574 323.253 224.909 325.434 229.246C329.092 236.498 337.887 242.19 347.666 243.546C361.526 245.511 377.99 237.04 384.251 224.842C386.784 219.827 388.543 211.356 387.699 208.509C387.488 207.696 388.543 208.509 390.302 210.475C396.282 217.319 412.605 232.296 419.077 236.904C426.816 242.461 435.47 247.815 440.747 250.39C442.717 251.339 444.405 252.22 444.405 252.356C444.405 252.424 439.762 252.424 434.063 252.288ZM440.184 609.565C434.415 617.223 421.962 622.848 412.393 621.967C405.569 621.357 405.991 621.899 405.499 611.802C405.217 606.855 404.795 602.111 404.514 601.162C404.092 599.739 404.373 599.874 406.484 602.111C413.308 609.633 425.691 609.836 431.812 602.517C433.782 600.145 434.133 600.01 436.525 600.484C437.933 600.755 440.325 601.23 441.732 601.433L444.405 601.907L443.35 604.279C442.787 605.567 441.38 607.939 440.184 609.565ZM437.581 590.59C435.329 590.861 434.133 590.793 433.922 590.251C433.782 589.845 432.726 588.489 431.601 587.202C429.349 584.762 425.761 583.407 423.158 584.016C420.695 584.626 417.67 587.676 417.67 589.506C417.67 591.064 417.529 591.132 414.715 590.793C411.338 590.319 411.549 590.522 417.529 593.775C419.57 594.859 421.469 596.283 421.68 596.893C422.314 598.519 419.992 599.807 416.404 599.807C413.73 599.807 412.886 599.468 410.635 597.231C403.81 590.658 406.132 580.221 415.56 575.139C420.766 572.292 427.379 572.157 433.148 574.8L437.088 576.562L438.918 582.254C441.521 590.048 441.521 590.048 437.581 590.59ZM429.631 568.565C422.454 567.074 414.434 569.311 408.665 574.326C405.569 577.036 402.192 582.797 402.192 585.44C402.192 587.54 400.996 586.727 400.433 584.22C400.152 583.068 398.745 579.069 397.197 575.342C394.031 567.413 394.031 567.481 399.87 562.873C406.273 557.858 412.464 555.35 420.555 554.673L425.269 554.198L428.083 558.874C431.319 564.296 433.782 568.904 433.571 569.175C433.43 569.243 431.671 568.972 429.631 568.565ZM411.76 555.418C406.835 556.977 401.84 560.026 397.478 564.025L393.89 567.481L391.216 562.466C387.91 556.028 381.859 546.472 377.497 540.712C375.598 538.205 374.05 535.968 374.05 535.833C374.05 535.697 375.527 536.036 377.427 536.578C383.618 538.408 400.081 541.458 408.454 542.271L416.756 543.084L420.695 548.235L424.706 553.385L419.992 553.859C417.459 554.13 413.73 554.808 411.76 555.418ZM411.197 541.864C402.262 540.983 388.965 538.747 381.085 536.782L372.994 534.748L369.547 530.818C363.285 523.838 356.179 517.4 352.239 515.163L348.37 512.927L351.888 513.401C353.858 513.672 360.893 514.011 367.577 514.079L379.678 514.282L384.533 517.061C392.342 521.534 400.644 527.768 408.313 534.952C412.323 538.679 415.56 541.864 415.56 542C415.56 542.135 413.59 542.068 411.197 541.864ZM400.855 453.087C397.548 459.457 392.905 464.066 387.065 466.709C383.477 468.335 379.819 468.809 378.623 467.793C377.356 466.776 372.643 464.133 372.643 464.54C372.643 464.743 373.979 465.624 375.668 466.573C378.341 468.132 378.482 468.335 376.794 468.335C375.175 468.335 374.824 468.742 373.768 472.469C371.658 479.991 362.511 486.904 350.832 489.953C340.068 492.8 326.63 493.206 315.655 491.038C309.815 489.885 306.086 488.462 310.73 489.208C312.489 489.479 316.288 489.682 319.172 489.682C325.786 489.614 330.922 487.514 336.339 482.566C341.053 478.297 343.937 473.079 345.907 465.489L347.455 459.661L350.621 461.016C356.953 463.727 366.17 463.117 371.869 459.661C374.19 458.305 380.452 453.426 381.648 452.07C385.096 448.275 386.221 441.905 384.251 437.297C382.774 433.908 378.552 429.91 375.527 428.961L372.994 428.148L376.16 426.86C380.452 425.098 388.332 423.133 393.257 422.523C397.9 422.049 398.745 422.456 400.926 426.589C403.74 431.808 404.303 434.518 404.021 441.092C403.81 446.852 403.529 447.869 400.855 453.087ZM402.755 619.731C400.644 619.121 395.93 616.003 393.96 613.97C393.116 613.089 391.005 610.04 389.176 607.261C385.588 601.772 385.518 603.127 389.035 609.498C391.779 614.512 395.719 618.85 400.152 621.56C404.232 624.136 404.303 624.61 401.911 633.352C396.423 652.87 382.281 669.88 364.27 678.418C353.787 683.366 345.626 685.195 333.525 685.195L325.645 685.195L323.323 682.688C317.413 676.182 308.478 660.595 303.483 648.261C300.95 641.755 298.277 633.217 296.307 624.881C295.674 622.102 294.97 619.256 294.759 618.578C294.548 617.63 295.251 617.969 297.714 619.731C304.257 624.542 313.051 625.423 320.791 621.967C325.856 619.731 329.726 615.936 332.61 610.243C334.862 605.906 335.002 605.16 335.002 598.79C335.002 592.826 334.791 591.539 333.032 588.015C329.233 580.086 323.042 574.868 314.177 572.021C307.915 569.988 299.473 570.327 293.704 572.834L289.764 574.596L289.271 571.14C288.357 564.499 284.276 546.743 282.939 543.423C282.587 542.61 283.502 541.796 286.949 539.967C299.754 533.19 311.574 535.629 328.319 548.641C337.746 556.028 344.219 557.451 358.571 555.418C367.929 554.13 369.899 554.334 376.301 557.587C380.874 559.891 389.598 566.871 390.935 569.243C391.357 570.056 390.865 571.683 389.106 575.003C387.769 577.578 386.714 580.154 386.714 580.763C386.784 581.373 387.347 580.425 388.05 578.73C389.528 575.139 391.779 571.344 392.413 571.344C393.186 571.344 398.463 582.187 400.011 586.931C401.277 590.861 403.036 599.264 403.81 604.889C403.951 606.041 404.162 609.904 404.232 613.564C404.303 620.205 404.303 620.205 402.755 619.731ZM368.562 419.541C365.748 420.287 361.456 421.71 359.134 422.659C356.813 423.608 354.772 424.217 354.561 424.014C354.35 423.879 355.687 422.184 357.516 420.287C364.2 413.374 373.979 411.138 383.97 414.12L389.176 415.679L381.437 416.966C377.216 417.644 371.376 418.796 368.562 419.541ZM380.241 286.986C370.532 293.966 363.918 301.42 351.254 319.582C347.807 324.462 344.922 328.528 344.782 328.731C344.36 329.07 349.214 315.991 351.466 310.637C355.194 301.488 362.16 290.374 368.069 284.072L371.517 280.48L375.035 280.954C379.467 281.496 385.307 282.648 385.307 282.987C385.307 283.123 382.985 284.885 380.241 286.986ZM379.678 449.021C378.904 450.58 377.427 452.613 376.442 453.494C374.894 454.917 373.979 455.12 369.617 455.052C365.888 455.052 363.778 454.646 361.667 453.629C358.36 451.935 353.647 447.191 353.647 445.429C353.647 444.819 354.702 443.057 356.039 441.634L358.36 438.923L358.783 441.634C359.345 445.023 362.722 448.479 366.029 449.089C373.417 450.376 379.115 441.837 373.839 437.432C371.517 435.535 370.039 435.399 367.858 436.89C365.537 438.449 365.818 441.16 368.421 442.108C371.869 443.396 370.673 445.971 366.592 445.971C363.496 445.971 360.682 442.786 360.682 439.262C360.682 436.619 362.019 434.993 366.873 431.808C369.617 429.978 372.572 430.249 376.16 432.621C381.015 435.806 382.633 443.193 379.678 449.021ZM374.613 204.985C371.376 205.189 362.16 205.663 353.998 206.07C345.907 206.476 338.379 207.018 337.324 207.222C336.198 207.425 335.354 207.425 335.354 207.222C335.354 206.002 336.972 203.155 338.872 201.055C340.138 199.699 340.912 198.615 340.701 198.615C339.224 198.615 333.947 201.936 330.359 205.121C328.037 207.154 325.575 208.78 324.73 208.78C322.338 208.78 306.719 211.965 300.387 213.727C297.151 214.608 294.548 215.218 294.548 215.083C294.548 214.066 299.402 208.374 303.202 204.917C308.9 199.835 314.036 197.734 320.017 198.073L324.027 198.276L324.801 195.227C325.786 191.228 329.515 186.755 334.369 183.57C350.903 172.795 374.331 180.182 379.326 197.802C379.819 199.564 380.311 201.8 380.311 202.817C380.382 204.579 380.311 204.579 374.613 204.985ZM377.849 217.523C375.738 222.063 371.165 226.671 366.24 229.247C361.878 231.415 351.395 231.483 346.541 229.382C339.153 226.061 334.58 219.623 334.51 212.372C334.51 210.407 334.58 208.577 334.721 208.441C335.143 208.103 370.039 206.07 376.02 206.07L380.593 206.07L380.171 209.797C379.96 211.83 378.904 215.286 377.849 217.523ZM370.532 297.558C367.436 301.285 363.004 310.637 361.386 316.872C360.612 319.853 359.768 325.072 359.486 328.392C359.134 334.288 358.923 334.83 354.491 342.963C351.888 347.639 347.174 356.787 343.937 363.293C328.881 393.586 327.263 396.364 316.569 409.376C306.297 421.846 285.894 439.94 268.165 452.409L260.777 457.627L258.385 455.594L256.063 453.629L261.762 449.631C280.477 436.619 302.639 415.34 313.333 400.227C324.238 384.708 328.389 376.169 337.465 349.604L343.164 332.865L350.34 322.496C359.697 308.943 372.572 292.678 372.643 294.44C372.643 294.711 371.728 296.134 370.532 297.558ZM358.29 292C351.466 301.691 348.229 308.604 340.842 329.07C336.409 341.404 335.284 343.708 328.389 355.161C324.168 362.073 318.328 371.764 315.373 376.711C301.583 399.821 283.924 421.71 267.039 436.619C255.712 446.581 255.289 446.92 259.37 443.87C265.632 439.194 284.557 420.49 291.241 412.426C302.498 398.872 308.127 390.469 326.208 360.379C330.218 353.806 333.525 348.452 333.666 348.587C333.806 348.655 331.977 353.602 329.655 359.566C315.655 395.755 298.629 416.627 260.425 444.48L252.053 450.647L250.083 449.495C247.902 448.275 247.621 447.665 249.028 447.123C251.42 446.242 271.823 429.097 279.07 421.845C289.623 411.341 295.674 403.48 300.88 393.45C308.408 378.948 310.448 368.918 309.815 349.062C309.323 332.594 307.353 324.462 299.473 305.69L295.955 297.219L297.503 296.067C300.598 293.762 317.484 286.105 323.253 284.41C337.817 280.073 352.451 278.379 363.989 279.667L367.718 280.141L364.974 283.258C363.496 284.953 360.471 288.883 358.29 292ZM303.413 593.233C300.458 592.759 295.04 594.995 293.774 597.231L292.859 598.79L292.367 596.757C292.085 595.673 291.874 593.368 291.804 591.81L291.734 588.828L294.759 589.302C297.362 589.709 305.805 592.826 305.805 593.436C305.805 593.504 304.749 593.436 303.413 593.233ZM283.01 226.468C282.025 230.06 280.899 235.549 280.477 238.666C280.055 241.784 279.351 245.85 278.929 247.68L278.225 250.932L273.371 241.377L268.587 231.822L270.416 228.365C271.753 225.994 273.089 224.57 274.919 223.622C277.803 222.266 284.698 219.556 284.698 219.827C284.698 219.894 283.924 222.944 283.01 226.468ZM276.959 300.675C273.441 307.452 270.627 310.772 266.546 312.738L263.31 314.296L260.425 307.316C253.249 290.509 240.656 273.703 228.062 264.351C225.951 262.792 224.192 261.233 224.192 260.962C224.192 260.623 227.851 256.828 232.283 252.491L240.304 244.63L243.47 247.815C246.284 250.594 246.917 250.932 248.817 250.594C251.772 249.984 254.023 248.222 255.782 245.308C257.682 242.055 257.682 241.919 255.078 243.139C252.686 244.291 244.666 245.104 242.837 244.427C241.852 244.088 241.781 243.817 242.485 243.003C243.118 242.258 244.103 242.122 245.932 242.394C251.49 243.275 263.31 238.531 265.984 234.397C266.406 233.719 266.969 233.177 267.18 233.177C267.813 233.177 276.044 249.238 276.607 251.475C276.889 252.694 276.044 255.27 273.723 260.285C270.557 266.994 270.346 267.739 270.346 273.161C270.346 279.734 271.964 283.733 276.889 289.764C278.436 291.662 279.703 293.627 279.703 294.237C279.773 294.847 278.507 297.761 276.959 300.675ZM274.919 404.09C273.16 410.731 269.572 418.186 265.21 424.421C261.762 429.368 251.138 440.279 246.636 443.531L244.103 445.293L240.796 443.531C239.037 442.583 237.56 441.702 237.56 441.498C237.56 441.363 240.093 437.974 243.118 433.976C255.993 417.034 264.928 397.313 268.235 378.406C269.079 373.594 269.923 371.154 271.19 369.528C272.175 368.308 273.089 367.495 273.301 367.698C273.512 367.901 274.426 371.358 275.341 375.356C277.311 384.437 277.17 395.958 274.919 404.09ZM264.999 382.811C262.536 394.535 258.174 405.92 251.912 417.441C247.832 424.827 239.319 437.432 236.856 439.533C234.042 441.973 234.605 439.804 238.123 434.654C246.495 422.252 254.656 402.192 258.737 384.098C259.511 380.71 260.074 379.829 263.029 377.457C264.858 375.898 266.406 375.017 266.406 375.492C266.406 375.966 265.772 379.219 264.999 382.811ZM255.852 484.464C250.505 487.852 245.791 490.699 245.369 490.699C244.947 490.699 242.696 489.343 240.374 487.649C237.982 486.023 234.324 483.718 232.213 482.499L228.273 480.398L235.59 476.67C239.53 474.637 244.666 471.859 246.917 470.571C250.927 468.267 251.068 468.199 254.234 469.08C256.345 469.623 258.807 471.113 261.551 473.621C263.873 475.654 265.702 477.484 265.702 477.755C265.702 477.958 261.27 481.008 255.852 484.464ZM262.677 516.315C261.41 516.79 260.144 517.128 259.933 517.128C259.722 517.128 259.863 515.57 260.285 513.604L260.988 510.08L263.029 512.385C264.084 513.672 264.999 514.892 264.999 515.095C264.999 515.299 263.943 515.841 262.677 516.315ZM262.536 572.157C260.355 581.983 255.219 593.775 249.38 601.975C240.304 614.919 220.182 629.896 204.915 635.25C196.894 638.096 185.778 638.57 179.305 636.469C173.044 634.436 169.596 632.132 167.134 628.405C164.32 624.068 163.475 620.679 163.827 614.648C164.109 610.649 164.531 608.82 166.008 606.38C167.767 603.534 173.114 598.451 174.31 598.451C174.662 598.451 179.517 596.282 185.215 593.639C193.306 589.844 196.472 587.947 199.92 584.829C206.041 579.272 210.051 571.682 211.458 563.143C212.021 559.619 212.021 559.552 210.895 561.178C204.352 570.869 192.392 575.545 182.542 572.157C171.003 568.226 165.023 558.738 169.104 550.538C170.441 547.692 175.154 544.643 180.22 543.219C182.19 542.609 185.637 541.457 187.959 540.509L192.181 538.814L198.653 544.846C204 549.861 206.252 551.487 211.669 553.995C227.569 561.449 246.636 562.263 261.762 556.163L264.506 555.079L263.943 561.314C263.732 564.77 263.029 569.649 262.536 572.157ZM238.826 330.764C238.263 331.713 236.575 335.508 235.168 339.235C233.761 342.963 231.931 347.435 231.158 349.197C227.147 358.482 219.76 366.682 212.232 370.273C208.081 372.239 206.955 372.442 199.779 372.713C195.417 372.849 191.829 372.713 191.829 372.442C191.829 372.171 192.392 371.154 193.095 370.206C193.799 369.189 197.035 363.7 200.342 358.007C203.86 351.772 207.729 346.012 209.98 343.64C214.061 339.235 219.619 336.186 223.418 336.186C225.388 336.186 225.67 335.982 225.037 335.372C224.474 334.83 222.082 334.491 218.705 334.491C214.131 334.491 212.584 334.83 209.066 336.457C204.211 338.761 197.176 345.267 190.914 353.331C185.778 359.905 182.401 362.209 177.828 362.209C169.315 362.209 162.279 353.467 162.279 343.03C162.279 339.642 163.405 335.101 164.32 334.491C164.671 334.356 166.782 334.83 169.034 335.576C173.255 337.067 183.879 337.676 188.733 336.728C192.743 335.982 199.849 332.255 203.226 329.138C216.172 317.21 218.493 299.929 208.995 285.969C207.799 284.207 207.87 284.071 210.051 280.412L212.302 276.617L216.172 278.785C229.891 286.376 240.867 300.607 244.947 316.058L246.565 322.293L243.259 325.681C241.429 327.579 239.459 329.815 238.826 330.764ZM232.635 251.203L222.856 260.759L219.478 258.59C208.011 251.136 193.658 244.02 172.762 235.346C157.847 229.179 150.249 225.587 142.369 221.114L136.951 217.997L139.203 215.693C143.072 211.83 152.5 205.053 158.058 202.139C165.023 198.547 173.818 195.633 181.909 194.278C190.773 192.854 192.743 192.854 194.362 194.616C196.331 196.785 200.905 198.615 204.141 198.547L206.955 198.479L204.211 197.937C200.975 197.327 196.965 193.735 199.146 193.329C201.256 192.922 213.991 195.159 220.041 196.988C225.388 198.615 231.228 200.987 231.228 201.597C231.228 201.732 230.524 204.985 229.75 208.848C227.78 218.132 228.132 225.112 230.876 231.076C232.987 235.549 237.63 240.293 240.656 241.038C241.64 241.241 242.485 241.513 242.485 241.58C242.485 241.58 238.052 245.985 232.635 251.203ZM239.389 494.697L236.293 496.323L233.268 493.952C231.58 492.596 227.429 489.818 224.122 487.852L218.071 484.193L220.956 483.041C222.574 482.431 224.333 481.889 224.896 481.889C226.514 481.956 242.485 491.783 242.485 492.732C242.485 492.935 241.078 493.816 239.389 494.697ZM227.78 475.18C223.278 477.009 222.363 477.145 220.604 476.467C219.478 475.993 218.564 475.383 218.564 475.18C218.564 474.095 227.077 470.978 233.479 469.69C237.278 468.945 240.585 468.335 240.867 468.335C241.922 468.403 232.916 473.079 227.78 475.18ZM231.509 198.75C231.298 198.954 229.188 198.412 226.795 197.463C220.393 194.955 210.051 192.583 203.297 192.041C196.894 191.567 197.105 191.838 197.457 186.416C197.809 180.249 203.719 173.54 209.98 172.253C218.986 170.423 228.765 177.2 231.158 186.891C231.861 189.805 232.142 198.208 231.509 198.75ZM226.725 405.716C223.489 414.323 217.579 420.693 209.066 424.827C202.03 428.283 197.668 429.029 186.2 428.758C175.225 428.555 170.933 427.538 166.008 423.878C164.812 422.997 163.616 422.252 163.475 422.252C163.335 422.252 164.109 423.946 165.234 426.047C166.29 428.148 167.204 430.249 167.204 430.723C167.204 431.197 166.149 431.74 164.883 431.943C157.284 433.095 136.177 442.583 122.036 451.121C117.393 453.9 113.453 456.069 113.242 455.865C113.03 455.662 113.453 453.29 114.086 450.579C115.563 444.955 119.996 436.145 123.584 431.807C129.634 424.488 143.072 416.898 154.611 414.12C158.41 413.239 165.023 412.493 171.848 412.087C184.09 411.409 191.969 410.257 202.663 407.614C209.558 405.92 222.011 401.718 226.162 399.617C228.343 398.533 228.414 398.533 228.414 399.821C228.414 400.566 227.64 403.209 226.725 405.716ZM218.916 505.472C210.473 509.471 198.09 514.282 189.437 516.79L183.105 518.619L181.135 516.383L179.094 514.079L180.22 516.315C180.853 517.603 181.205 518.755 181.064 518.89C180.853 519.094 178.25 519.771 175.225 520.517C163.546 523.16 152.007 524.718 138.007 525.667C130.83 526.142 104.588 526.209 104.166 525.735C103.744 525.328 106.347 518.484 108.317 514.689C109.302 512.791 111.342 509.742 112.89 507.844L115.704 504.456L130.408 504.049C138.71 503.846 147.997 503.168 151.937 502.558C155.736 501.948 159.324 501.609 159.817 501.813C161.294 502.355 163.053 505.947 164.742 512.046L166.29 517.467L167.134 514.418C168.541 509.199 169.385 507.776 172.411 505.066C179.798 498.56 201.538 494.697 215.398 497.475C221.097 498.628 227.288 500.864 226.514 501.542C226.233 501.88 222.785 503.642 218.916 505.472ZM215.116 480.194C211.95 481.211 208.011 481.075 208.011 479.923C208.011 479.652 209.488 478.839 211.388 478.094C213.92 477.077 215.116 476.874 216.664 477.416C217.72 477.755 218.564 478.297 218.564 478.568C218.564 478.839 217.016 479.584 215.116 480.194ZM211.528 472.604C209.207 471.994 209.98 471.046 212.795 471.046C215.116 471.113 215.257 471.181 214.131 471.994C213.428 472.537 212.232 472.808 211.528 472.604ZM207.166 283.055C206.814 283.258 205.337 282.445 203.93 281.09C193.236 271.331 177.335 270.856 166.852 280.005C161.294 284.952 159.113 289.628 159.113 296.541C159.113 302.64 160.45 305.825 164.531 309.552C166.852 311.721 172.27 314.432 174.24 314.5C176.562 314.5 180.642 313.009 182.683 311.382C185.567 309.01 185.356 309.891 181.627 314.906L178.391 319.243L175.436 318.837C171.355 318.362 161.928 320.124 157.214 322.225C155.103 323.174 152.852 323.987 152.219 323.987C151.515 323.987 151.093 324.258 151.234 324.529C151.304 324.868 149.475 326.901 147.153 329.138C144.831 331.306 140.258 335.847 136.951 339.167C129.705 346.554 126.82 348.045 119.362 348.045C113.03 348.045 109.091 346.486 104.306 342.285C100.226 338.625 98.2558 334.695 97.7633 328.934C97.1301 320.666 100.437 311.247 107.05 302.979C115.352 292.678 133.574 279.802 147.364 274.584C165.445 267.739 191.266 267.807 207.659 274.787L211.458 276.481L209.699 279.531C208.714 281.225 207.588 282.852 207.166 283.055ZM204.915 476.196C202.804 477.009 200.764 477.416 200.342 477.213C199.427 476.67 205.337 473.756 207.307 473.756C209.769 473.756 208.784 474.705 204.915 476.196ZM161.294 457.831C158.48 462.846 158.058 463.252 155.877 463.455C143.283 464.336 131.323 466.369 121.051 469.351C117.744 470.368 114.93 471.046 114.789 470.91C114.649 470.842 114.227 469.622 113.875 468.335C113.453 467.047 113.101 466.505 113.101 467.115C113.03 467.725 113.312 469.012 113.664 469.893C114.297 471.452 114.086 471.655 111.061 472.74C102.125 475.993 80.6669 486.903 81.5815 487.784C81.7222 487.92 84.6772 486.429 88.1246 484.532C100.085 477.89 113.875 472.604 127.102 469.487C135.192 467.589 148.56 465.624 153.485 465.624L156.581 465.624L155.173 467.928C153.626 470.503 151.726 471.046 143.635 471.046C124.85 471.046 100.155 478.026 83.1997 488.055C81.3001 489.208 78.908 490.292 77.923 490.495C75.8827 490.834 79.4709 487.513 93.4013 476.06C107.402 464.54 122.669 456.001 135.192 452.748C143.565 450.579 164.39 449.969 164.39 451.935C164.39 452.206 162.983 454.849 161.294 457.831Z" fill="#333333" fill-opacity="0.33"/>
<path d="M487.533 169.881C486.548 169.474 486.478 169.542 487.111 170.22C487.604 170.694 488.167 170.897 488.378 170.694C488.589 170.491 488.237 170.084 487.533 169.881Z" fill="#333333" fill-opacity="0.33"/>
<path d="M364.833 507.031C363.567 506.624 362.441 506.421 362.3 506.556C362.16 506.692 363.004 507.166 364.27 507.573C365.537 507.979 366.662 508.183 366.803 508.047C366.944 507.912 366.1 507.437 364.833 507.031Z" fill="#333333" fill-opacity="0.33"/>
<path d="M358.149 504.997C357.375 504.997 357.164 505.201 357.727 505.404C358.22 505.607 358.853 505.54 359.064 505.336C359.345 505.133 358.923 504.93 358.149 504.997Z" fill="#333333" fill-opacity="0.33"/>
<path d="M354.35 503.913C353.154 503.642 351.958 503.575 351.817 503.778C351.606 503.913 352.521 504.252 353.717 504.523C356.672 505.065 357.235 504.523 354.35 503.913Z" fill="#333333" fill-opacity="0.33"/>
<path d="M349.003 502.965C348.229 502.965 348.018 503.168 348.581 503.371C349.074 503.574 349.707 503.507 349.918 503.303C350.199 503.1 349.777 502.897 349.003 502.965Z" fill="#333333" fill-opacity="0.33"/>
<path d="M344.852 502.354C343.726 502.354 343.304 502.49 344.008 502.693C344.641 502.829 345.626 502.829 346.119 502.693C346.541 502.49 346.048 502.354 344.852 502.354Z" fill="#333333" fill-opacity="0.33"/>
<path d="M332.892 501.812C329.022 501.812 327.545 501.88 329.585 502.016C331.625 502.151 334.791 502.151 336.621 502.016C338.45 501.88 336.761 501.812 332.892 501.812Z" fill="#333333" fill-opacity="0.33"/>
<path d="M386.01 583.203C385.447 584.491 385.025 588.15 385.588 587.54C385.729 587.405 386.01 586.049 386.221 584.558C386.573 582.661 386.503 582.254 386.01 583.203Z" fill="#333333" fill-opacity="0.33"/>
<path d="M384.814 590.861C384.673 592.013 384.673 594.046 384.814 595.266C384.955 596.418 385.095 595.469 385.095 593.03C385.095 590.59 384.955 589.641 384.814 590.861Z" fill="#333333" fill-opacity="0.33"/>
<path d="M254.867 446.649C254.727 446.649 254.164 447.191 253.671 447.868C252.757 448.885 252.827 448.953 253.953 448.072C255.079 447.191 255.43 446.649 254.867 446.649Z" fill="#333333" fill-opacity="0.33"/>
<path d="M189.929 340.116C189.788 341.675 189.788 344.114 189.929 345.538C190.07 346.893 190.211 345.605 190.211 342.623C190.211 339.642 190.07 338.49 189.929 340.116Z" fill="#333333" fill-opacity="0.33"/>
<path d="M176.702 507.979C175.858 506.285 175.717 506.217 176.069 507.641C176.351 508.589 176.773 509.606 177.125 510.013C177.969 510.826 177.899 510.351 176.702 507.979Z" fill="#333333" fill-opacity="0.33"/>
<path d="M79.9634 488.665C79.1894 489.072 78.5562 489.546 78.5562 489.75C78.5562 489.885 79.1894 489.75 79.9634 489.343C80.7373 488.937 81.3705 488.462 81.3705 488.259C81.3705 488.123 80.7373 488.259 79.9634 488.665Z" fill="#333333" fill-opacity="0.33"/>
<path d="M847.191 270.653C844.095 259.743 836.145 251.678 824.958 248.086C818.556 246.053 808.706 246.053 802.585 248.018C787.67 252.898 778.383 266.045 778.313 282.309C778.313 288.476 779.579 295.524 780.775 295.524C781.127 295.524 781.408 293.898 781.408 292C781.479 285.495 784.645 281.157 791.962 277.566C796.394 275.397 803.007 273.838 807.51 273.838L811.309 273.906L808.566 274.855C802.656 276.888 799.982 281.361 800.545 288.341C801.038 293.627 802.937 297.286 807.158 300.878C817.641 309.756 836.637 305.825 844.236 293.288C848.105 286.918 849.231 278.108 847.191 270.653Z" fill="#333333" fill-opacity="0.33"/>
<path d="M815.812 326.427C814.194 326.156 812.717 326.088 812.576 326.291C812.435 326.427 813.561 326.766 815.179 327.037C816.797 327.308 818.204 327.375 818.415 327.172C818.626 327.037 817.43 326.698 815.812 326.427Z" fill="#333333" fill-opacity="0.33"/>
<path d="M809.058 324.8C805.681 323.784 805.189 324.258 808.495 325.342C809.902 325.817 811.169 326.02 811.38 325.885C811.521 325.681 810.465 325.207 809.058 324.8Z" fill="#333333" fill-opacity="0.33"/>
<path d="M802.163 322.09C800.404 321.276 798.997 320.734 798.997 320.937C798.997 321.412 804.696 324.123 805.048 323.852C805.188 323.648 803.852 322.903 802.163 322.09Z" fill="#333333" fill-opacity="0.33"/>
<path d="M796.464 318.905C795.409 318.295 794.846 318.091 795.057 318.498C795.55 319.243 798.294 320.87 798.294 320.395C798.294 320.192 797.449 319.582 796.464 318.905Z" fill="#333333" fill-opacity="0.33"/>
<path d="M792.173 315.787L790.203 314.161L791.891 316.058C793.509 317.752 794.072 318.227 794.072 317.685C794.072 317.549 793.228 316.736 792.173 315.787Z" fill="#333333" fill-opacity="0.33"/>
<path d="M785.137 309.01C784.011 308.129 783.941 308.197 784.856 309.281C785.77 310.366 786.333 310.704 786.333 310.162C786.333 310.027 785.77 309.485 785.137 309.01Z" fill="#333333" fill-opacity="0.33"/>
<path d="M721.395 13.6058C717.737 1.20412 706.269 -2.52318 692.409 4.11816C683.896 8.11651 676.227 16.0455 671.091 26.0075C667.221 33.5976 665.462 39.5612 664.689 47.6257C663.985 54.4704 664.407 56.9778 666.166 56.9778C667.643 56.9778 678.338 62.5349 682.207 65.2456C684.318 66.8043 688.258 70.1928 690.861 72.8358C694.238 76.2242 695.364 77.0374 694.66 75.6143C684.529 55.6902 681.785 48.9134 680.167 40.3067C679.111 34.6819 679.041 26.7529 680.026 23.229C681.152 19.2984 685.514 14.8256 690.157 12.8603C695.153 10.6917 703.595 10.624 708.309 12.657C717.807 16.9265 721.817 25.1943 717.174 31.0902L715.696 32.9199L717.315 31.5646C721.325 28.2439 723.224 19.8406 721.395 13.6058Z" fill="#333333" fill-opacity="0.33"/>
<path d="M717.314 121.697C716.329 116.547 714.008 110.176 710.56 103.129C700.359 81.9168 681.715 64.7713 662.859 59.282C657.09 57.5878 645.2 57.5878 640.416 59.282C635.21 61.1118 631.692 63.6192 629.581 67.0754C627.119 71.1415 626.908 78.054 629.229 82.7978C631.762 88.2193 638.727 94.3185 642.245 94.2507C642.738 94.183 641.964 93.573 640.486 92.8276C632.677 88.8292 633.38 78.054 641.964 70.3961C649.14 64.0258 657.864 62.3994 665.533 66.0589C670.317 68.2953 673.272 71.4804 676.086 77.173C678.549 82.3234 679.322 88.8293 677.986 94.3185C676.719 99.6723 672.146 108.347 666.166 116.479C657.723 128.135 654.979 134.438 654.276 143.383C653.15 158.496 662.719 169.068 678.337 169.949C685.092 170.423 689.876 169.474 695.856 166.628C707.183 161.342 713.586 153.684 716.752 141.892C718.159 136.335 718.44 127.661 717.314 121.697Z" fill="#333333" fill-opacity="0.33"/>
<path d="M674.679 172.049C668.699 171.71 663.844 169.948 660.749 166.967C658.708 164.934 658.567 165.476 659.764 170.965C660.889 175.912 663.422 178.284 667.784 178.284C671.583 178.284 674.609 177.064 677.845 174.353L680.167 172.388L674.679 172.049Z" fill="#333333" fill-opacity="0.33"/>
<path d="M664.899 460.27C664.126 460.27 663.914 460.473 664.477 460.677C664.97 460.88 665.603 460.812 665.814 460.609C666.095 460.406 665.673 460.202 664.899 460.27Z" fill="#333333" fill-opacity="0.33"/>
<path d="M662.085 425.912C660.608 421.981 657.02 418.186 652.587 415.814C649.28 414.052 648.084 413.781 643.511 413.781C637.742 413.781 634.435 415.069 629.862 418.931C627.048 421.303 623.108 428.419 623.108 430.994C623.179 432.756 623.179 432.688 624.375 430.588C626.345 426.996 628.385 426.047 633.661 426.115C638.305 426.115 645.341 428.148 641.26 428.283C636.546 428.419 632.888 434.586 634.365 439.804C635.28 443.125 639.642 446.988 643.652 448.072C647.381 449.021 652.657 448.004 656.246 445.7C661.733 442.108 664.618 432.35 662.085 425.912Z" fill="#333333" fill-opacity="0.33"/>
<path d="M658.638 461.693C657.512 461.693 657.09 461.829 657.794 462.032C658.427 462.168 659.412 462.168 659.904 462.032C660.326 461.829 659.834 461.693 658.638 461.693Z" fill="#333333" fill-opacity="0.33"/>
<path d="M648.014 461.625C647.24 461.625 647.029 461.829 647.592 462.032C648.084 462.235 648.718 462.168 648.929 461.964C649.21 461.761 648.788 461.558 648.014 461.625Z" fill="#333333" fill-opacity="0.33"/>
<path d="M575.478 700.307C575.337 700.917 575.337 702.002 575.478 702.679C575.689 703.289 575.83 702.747 575.83 701.46C575.83 700.172 575.689 699.63 575.478 700.307Z" fill="#333333" fill-opacity="0.33"/>
<path d="M574.563 695.021C573.789 693.327 573.789 695.089 574.563 697.393C574.985 698.749 575.126 698.817 575.126 697.732C575.126 696.987 574.915 695.767 574.563 695.021Z" fill="#333333" fill-opacity="0.33"/>
<path d="M571.045 686.144C569.146 682.417 566.894 679.299 563.869 676.25C561.407 673.878 560.703 673.268 562.321 674.962C567.035 680.045 568.935 682.823 571.467 688.38C572.734 691.294 573.86 693.192 573.86 692.65C573.86 692.108 572.593 689.193 571.045 686.144Z" fill="#333333" fill-opacity="0.33"/>
<path d="M557.537 670.489C556.13 669.473 554.863 668.795 554.863 669.134C554.863 669.337 555.637 669.947 556.622 670.557C558.451 671.709 559.085 671.641 557.537 670.489Z" fill="#333333" fill-opacity="0.33"/>
<path d="M551.275 687.093C549.657 681.671 542.833 676.453 537.275 676.385C528.902 676.317 522.641 686.076 527.847 691.091L529.676 692.853L527.636 692.379C524.892 691.701 520.389 689.058 518.279 686.889C516.871 685.398 516.52 684.45 516.59 681.468C516.59 677.13 515.957 677.266 514.409 681.874C508.921 697.732 522.43 712.37 538.26 707.965C547.476 705.39 553.667 695.496 551.275 687.093Z" fill="#333333" fill-opacity="0.33"/>
<path d="M521.445 214.337C520.46 213.863 519.264 213.524 518.771 213.524C518.279 213.592 518.982 213.998 520.319 214.608C523.063 215.76 524.118 215.489 521.445 214.337Z" fill="#333333" fill-opacity="0.33"/>
<path d="M514.057 212.304C513.072 212.304 512.72 212.44 513.213 212.643C513.635 212.778 514.479 212.778 514.972 212.643C515.394 212.44 515.042 212.304 514.057 212.304Z" fill="#333333" fill-opacity="0.33"/>
<path d="M510.821 211.559C510.047 211.559 509.836 211.762 510.399 211.965C510.891 212.169 511.525 212.101 511.736 211.898C512.017 211.694 511.595 211.491 510.821 211.559Z" fill="#333333" fill-opacity="0.33"/>
<path d="M506.74 236.159C503.152 228.704 494.709 225.248 487.674 228.365C482.116 230.737 479.02 236.227 480.427 241.106C481.905 246.189 486.83 248.764 491.051 246.595C492.528 245.85 492.528 245.918 491.473 247.476C490.84 248.357 488.87 250.051 486.97 251.271C483.241 253.779 479.513 254.185 476.909 252.423C473.955 250.458 474.588 251.949 477.824 254.727C485.563 261.233 496.117 261.369 502.8 254.931C508.358 249.577 509.836 242.597 506.74 236.159Z" fill="#333333" fill-opacity="0.33"/>
<path d="M504.207 210.949C502.871 210.949 502.308 211.084 503.011 211.287C503.645 211.423 504.77 211.423 505.474 211.287C506.107 211.084 505.544 210.949 504.207 210.949Z" fill="#333333" fill-opacity="0.33"/>
<path d="M499.986 173.676C498.649 173.676 498.087 173.811 498.79 174.015C499.423 174.15 500.549 174.15 501.253 174.015C501.886 173.811 501.323 173.676 499.986 173.676Z" fill="#333333" fill-opacity="0.33"/>
<path d="M496.046 172.93C495.272 172.93 495.061 173.134 495.624 173.337C496.117 173.54 496.75 173.473 496.961 173.269C497.242 173.066 496.82 172.863 496.046 172.93Z" fill="#333333" fill-opacity="0.33"/>
<path d="M496.046 211.559C495.272 211.559 495.061 211.762 495.624 211.965C496.117 212.169 496.75 212.101 496.961 211.898C497.242 211.694 496.82 211.491 496.046 211.559Z" fill="#333333" fill-opacity="0.33"/>
<path d="M480.709 217.59C480.568 217.59 480.005 218.132 479.513 218.81C478.598 219.826 478.668 219.894 479.794 219.013C480.92 218.132 481.272 217.59 480.709 217.59Z" fill="#333333" fill-opacity="0.33"/>
<path d="M375.668 90.7267C375.457 91.2011 375.527 91.811 375.738 92.0143C375.949 92.2854 376.16 91.8788 376.09 91.1334C376.09 90.3879 375.879 90.1846 375.668 90.7267Z" fill="#333333" fill-opacity="0.33"/>
<path d="M375.668 100.214C375.527 100.621 375.527 101.434 375.668 101.909C375.879 102.315 376.02 101.976 376.02 101.028C376.02 100.079 375.879 99.74 375.668 100.214Z" fill="#333333" fill-opacity="0.33"/>
<path d="M271.331 646.567C270.909 645.957 270.627 645.889 270.627 646.363C270.627 646.77 270.979 647.38 271.331 647.583C272.175 648.125 272.175 647.854 271.331 646.567Z" fill="#333333" fill-opacity="0.33"/>
<path d="M218.142 115.395C214.835 109.024 209.277 105.839 201.327 105.771C196.472 105.771 191.407 107.398 188.311 109.973C182.26 114.92 180.079 124.137 182.823 132.947C183.879 136.539 184.582 136.267 184.512 132.269C184.441 129.423 184.793 128.542 186.552 126.78C188.944 124.34 192.462 122.443 195.909 121.697L198.231 121.223L196.472 122.917C194.01 125.357 193.588 127.661 194.995 131.185C198.794 140.808 212.865 140.198 218.353 130.168C220.675 125.967 220.604 120.071 218.142 115.395Z" fill="#333333" fill-opacity="0.33"/>
<path d="M208.996 151.922C208.222 151.922 208.011 152.125 208.573 152.329C209.066 152.532 209.699 152.464 209.91 152.261C210.192 152.058 209.769 151.854 208.996 151.922Z" fill="#333333" fill-opacity="0.33"/>
</svg>
